<svg xmlns="http://www.w3.org/2000/svg" width="180" height="80" viewBox="0 0 180 80" fill="none">
  <g clip-path="url(#clip0_179_1434)">
    <path d="M60.5239 20.3332H53.8292V39.9259C53.8292 42.0437 53.3003 43.7023 52.4389 45.05C52.9527 46.3088 53.2096 47.6712 53.2096 49.1374V60.0666H49.0538V49.1374C49.0538 48.856 49.0387 48.5894 49.0085 48.308C47.6484 49.1818 46.1221 49.8926 44.626 50.6035L43.553 51.107L35.0298 55.0463V60.0666H30.874V56.9715L3.73267 69.5446C4.86607 70.211 6.16571 70.5516 7.49557 70.5516H53.8594L68.0195 80V27.6786C68.0195 23.6209 64.6495 20.3332 60.5239 20.3332ZM60.7505 60.0666H56.5947V38.1636H60.7505V60.0666ZM58.6802 35.0833C57.3806 35.0833 56.3076 34.0466 56.3076 32.7582C56.3076 31.4698 57.3654 30.4332 58.6802 30.4332C59.9949 30.4332 61.0528 31.4698 61.0528 32.7582C61.0528 34.0466 59.9949 35.0833 58.6802 35.0833Z" fill="#21B8BD"/>
    <path d="M51.7135 7.24176C51.7135 4.10218 49.5676 1.21436 46.4999 0.251753C44.3086 -0.444286 41.9058 0.473892 39.639 1.56978L3.6571 18.2599H51.7286V7.24176H51.7135Z" fill="#21B8BD"/>
    <path d="M34.1533 41.3773C36.3446 39.2299 38.9589 38.1636 42.0267 38.1636C45.0944 38.1636 47.7542 39.2299 49.9454 41.3773C50.4139 41.8364 50.837 42.3399 51.1997 42.8434C51.5171 42.0141 51.7135 41.0515 51.7135 39.9259V20.3332H0V63.2062C0 64.9981 0.695156 66.7456 1.91923 68.0933L30.874 54.6909V49.1522C30.874 46.1311 31.9621 43.5394 34.1533 41.4069V41.3773ZM27.5493 49.1374C27.5493 52.1437 26.4613 54.7205 24.27 56.853C22.0787 59.0004 19.4644 60.0666 16.3966 60.0666C13.3289 60.0666 10.6691 59.0004 8.49299 56.853C6.30174 54.7057 5.21367 52.1437 5.21367 49.1374V38.1785H9.36949V49.1374C9.36949 51.0329 10.0495 52.6472 11.4247 53.98C12.815 55.3128 14.4774 55.9941 16.4117 55.9941C18.3461 55.9941 19.9933 55.3277 21.3534 53.98C22.7135 52.6472 23.4086 51.0329 23.4086 49.1374V38.1785H27.5644V49.1374H27.5493Z" fill="#21B8BD"/>
    <path d="M48.404 46.2199C48.0564 45.5091 47.5879 44.8575 46.9835 44.2503C45.6234 42.9174 43.961 42.2362 42.0418 42.2362C40.1226 42.2362 38.4603 42.9026 37.1002 44.2503C35.7401 45.6127 35.0449 47.2418 35.0449 49.1374V52.7508L43.7193 48.7375C45.4874 47.9082 47.1044 47.1529 48.4191 46.2199H48.404Z" fill="#21B8BD"/>
    <path d="M87.9221 70.4628H85.8517C85.5495 70.4628 85.3228 70.3887 85.2019 70.2555C85.081 70.1222 85.0206 69.9445 85.0206 69.7519V67.7083C85.0206 67.5009 85.081 67.338 85.2019 67.2047C85.3228 67.0715 85.5344 66.9974 85.8517 66.9974H87.8768C87.9674 66.9974 88.0128 66.953 88.0128 66.8641V66.3014C88.0128 66.2125 87.9674 66.1681 87.8768 66.1681H85.8517C85.2624 66.1681 84.809 66.3014 84.5219 66.5679C84.2347 66.8345 84.0836 67.2196 84.0836 67.6935V69.7371C84.0836 70.211 84.2347 70.5961 84.5219 70.8626C84.809 71.1292 85.2624 71.2625 85.8517 71.2625H87.9221C88.0128 71.2625 88.0581 71.2181 88.0581 71.1292V70.5665C88.0581 70.4776 88.0128 70.4332 87.9221 70.4332V70.4628Z" fill="#21B8BD"/>
    <path d="M92.0023 66.1681H90.612C90.0226 66.1681 89.5844 66.3162 89.2973 66.6272C89.0101 66.9234 88.859 67.3232 88.859 67.7971V71.144C88.859 71.2329 88.9043 71.2773 88.995 71.2773H89.6751C89.7657 71.2773 89.8111 71.2329 89.8111 71.144V67.7971C89.8111 67.6046 89.8715 67.4121 89.9924 67.2492C90.1133 67.0863 90.3249 66.9974 90.6422 66.9974H91.5641V67.4565C91.5641 67.5454 91.6094 67.5898 91.7001 67.5898H92.3801C92.4708 67.5898 92.5161 67.5454 92.5161 67.4565V66.6124C92.5161 66.4939 92.4708 66.3902 92.3801 66.3014C92.2895 66.2125 92.1837 66.1829 92.0477 66.1829L92.0023 66.1681Z" fill="#21B8BD"/>
    <path d="M95.9769 69.3373C97.2312 69.3225 97.8357 68.7893 97.8357 67.7083C97.8357 67.4565 97.7903 67.2344 97.7148 67.0418C97.6241 66.8493 97.5183 66.6864 97.3672 66.5531C97.2161 66.4198 97.0347 66.331 96.8383 66.2718C96.6418 66.2125 96.4151 66.1681 96.1885 66.1681H94.7981C94.2088 66.1681 93.7554 66.3014 93.4683 66.5679C93.1811 66.8345 93.03 67.2196 93.03 67.6935V69.7371C93.03 70.211 93.1811 70.5961 93.4683 70.8626C93.7554 71.1292 94.2088 71.2625 94.7981 71.2625H97.4276C97.5183 71.2625 97.5636 71.2181 97.5636 71.1292V70.5665C97.5636 70.4776 97.5183 70.4332 97.4276 70.4332H94.7981C94.4959 70.4332 94.2692 70.3591 94.1483 70.2258C94.0274 70.0926 93.967 69.9149 93.967 69.7223V69.3077H95.992L95.9769 69.3373ZM93.9519 67.7083C93.9519 67.5009 94.0123 67.338 94.1332 67.2047C94.2541 67.0715 94.4657 66.9974 94.783 66.9974H96.1733C96.264 66.9974 96.3547 66.9974 96.4302 67.027C96.5209 67.0418 96.5965 67.0863 96.672 67.1455C96.7476 67.2047 96.7929 67.2788 96.8383 67.3676C96.8836 67.4565 96.8987 67.575 96.8987 67.7231C96.8987 68.0044 96.8232 68.2118 96.6872 68.3451C96.5511 68.4783 96.3093 68.5376 95.9769 68.5376H93.9519V67.7231V67.7083Z" fill="#21B8BD"/>
    <path d="M101.629 66.1681H98.9993C98.9086 66.1681 98.8633 66.2125 98.8633 66.3014V66.8641C98.8633 66.953 98.9086 66.9974 98.9993 66.9974H101.629C101.931 66.9974 102.158 67.0715 102.279 67.2047C102.4 67.338 102.46 67.5157 102.46 67.7083V68.1229H100.344C99.09 68.1377 98.4855 68.6709 98.4855 69.7519C98.4855 70.0037 98.5308 70.2258 98.6064 70.4184C98.697 70.6109 98.8028 70.7738 98.954 70.9071C99.1051 71.0256 99.2713 71.1292 99.4829 71.1885C99.6793 71.2477 99.906 71.2773 100.133 71.2773H101.629C102.218 71.2773 102.672 71.144 102.959 70.8775C103.246 70.6109 103.397 70.2258 103.397 69.7519V67.7083C103.397 67.2344 103.246 66.8493 102.959 66.5828C102.672 66.3162 102.218 66.1829 101.629 66.1829V66.1681ZM102.445 69.7519C102.445 69.9593 102.384 70.1222 102.263 70.2555C102.143 70.3887 101.931 70.4628 101.614 70.4628H100.118C100.027 70.4628 99.9362 70.4628 99.8607 70.4332C99.77 70.4184 99.6944 70.3739 99.6189 70.3147C99.5433 70.2555 99.498 70.1814 99.4526 70.0926C99.4073 70.0037 99.3922 69.8852 99.3922 69.7519C99.3922 69.4706 99.4678 69.2632 99.6038 69.13C99.7398 68.9967 99.9816 68.9374 100.314 68.9374H102.43V69.7519H102.445Z" fill="#21B8BD"/>
    <path d="M107.326 70.4628H106.48C106.283 70.4628 106.132 70.4184 106.011 70.3443C105.906 70.2703 105.815 70.1814 105.769 70.0777C105.709 69.9889 105.679 69.8556 105.664 69.6927V66.9826H107.024C107.114 66.9826 107.16 66.9382 107.16 66.8493V66.2866C107.16 66.1977 107.114 66.1533 107.024 66.1533H105.664V64.6279C105.664 64.5391 105.618 64.4946 105.528 64.4946H104.848C104.757 64.4946 104.712 64.5391 104.712 64.6279V66.1533H103.941C103.85 66.1533 103.805 66.1977 103.805 66.2866V66.8493C103.805 66.9382 103.85 66.9826 103.941 66.9826H104.712V69.6927C104.712 69.8556 104.742 70.0185 104.802 70.211C104.863 70.3887 104.969 70.5665 105.105 70.7145C105.241 70.8775 105.422 71.0107 105.649 71.1144C105.875 71.2181 106.147 71.2773 106.465 71.2773H107.311C107.402 71.2773 107.447 71.2329 107.447 71.144V70.5813C107.447 70.4924 107.402 70.448 107.311 70.448L107.326 70.4628Z" fill="#21B8BD"/>
    <path d="M111.648 69.3373C112.902 69.3225 113.507 68.7893 113.507 67.7083C113.507 67.4565 113.461 67.2344 113.386 67.0418C113.295 66.8493 113.189 66.6864 113.038 66.5531C112.887 66.4198 112.706 66.331 112.509 66.2718C112.313 66.2125 112.086 66.1681 111.86 66.1681H110.469C109.88 66.1681 109.427 66.3014 109.139 66.5679C108.852 66.8345 108.701 67.2196 108.701 67.6935V69.7371C108.701 70.211 108.852 70.5961 109.139 70.8626C109.427 71.1292 109.88 71.2625 110.469 71.2625H113.099C113.189 71.2625 113.22 71.2181 113.22 71.1292V70.5665C113.22 70.4776 113.174 70.4332 113.099 70.4332H110.469C110.167 70.4332 109.94 70.3591 109.819 70.2258C109.699 70.0926 109.638 69.9149 109.638 69.7223V69.3077H111.663L111.648 69.3373ZM109.638 67.7083C109.638 67.5009 109.699 67.338 109.819 67.2047C109.94 67.0715 110.152 66.9974 110.469 66.9974H111.86C111.95 66.9974 112.041 66.9974 112.117 67.027C112.207 67.0418 112.283 67.0863 112.358 67.1455C112.434 67.2047 112.479 67.2788 112.525 67.3676C112.57 67.4565 112.585 67.575 112.585 67.7231C112.585 68.0044 112.509 68.2118 112.373 68.3451C112.237 68.4783 111.996 68.5376 111.663 68.5376H109.638V67.7231V67.7083Z" fill="#21B8BD"/>
    <path d="M119.763 66.1681H117.648V63.8578C117.648 63.769 117.602 63.7245 117.512 63.7245H116.831C116.741 63.7245 116.711 63.769 116.711 63.8578V69.7371C116.711 70.211 116.862 70.5961 117.149 70.8626C117.436 71.1292 117.889 71.2625 118.479 71.2625H119.778C120.368 71.2625 120.821 71.1292 121.108 70.8626C121.395 70.5961 121.546 70.211 121.546 69.7371V67.6934C121.546 67.2196 121.395 66.8345 121.108 66.5679C120.821 66.3014 120.368 66.1681 119.778 66.1681H119.763ZM120.594 69.7519C120.594 69.9593 120.534 70.1222 120.413 70.2555C120.292 70.3887 120.081 70.4628 119.763 70.4628H118.464C118.161 70.4628 117.935 70.3887 117.814 70.2555C117.693 70.1222 117.632 69.9445 117.632 69.7519V66.9974H119.748C120.05 66.9974 120.277 67.0715 120.398 67.2047C120.519 67.338 120.579 67.5157 120.579 67.7083V69.7519H120.594Z" fill="#21B8BD"/>
    <path d="M125.325 69.3373C126.579 69.3225 127.183 68.7893 127.183 67.7083C127.183 67.4565 127.138 67.2344 127.062 67.0418C126.972 66.8493 126.866 66.6864 126.715 66.5531C126.564 66.4198 126.382 66.331 126.186 66.2718C125.989 66.2125 125.763 66.1681 125.536 66.1681H124.146C123.556 66.1681 123.103 66.3014 122.816 66.5679C122.529 66.8345 122.378 67.2196 122.378 67.6935V69.7371C122.378 70.211 122.529 70.5961 122.816 70.8626C123.103 71.1292 123.556 71.2625 124.146 71.2625H126.775C126.866 71.2625 126.911 71.2181 126.911 71.1292V70.5665C126.911 70.4776 126.866 70.4332 126.775 70.4332H124.146C123.844 70.4332 123.617 70.3591 123.496 70.2258C123.375 70.0926 123.315 69.9149 123.315 69.7223V69.3077H125.34L125.325 69.3373ZM123.315 67.7083C123.315 67.5009 123.375 67.338 123.496 67.2047C123.617 67.0715 123.828 66.9974 124.146 66.9974H125.536C125.627 66.9974 125.717 66.9974 125.793 67.027C125.884 67.0418 125.959 67.0863 126.035 67.1455C126.11 67.2047 126.156 67.2788 126.201 67.3676C126.246 67.4565 126.261 67.575 126.261 67.7231C126.261 68.0044 126.186 68.2118 126.05 68.3451C125.914 68.4783 125.672 68.5376 125.34 68.5376H123.315V67.7231V67.7083Z" fill="#21B8BD"/>
    <path d="M131.022 70.4628H130.175C129.979 70.4628 129.828 70.4184 129.707 70.3443C129.601 70.2703 129.511 70.1814 129.465 70.0777C129.405 69.9889 129.375 69.8556 129.359 69.6927V66.9826H130.719C130.81 66.9826 130.855 66.9382 130.855 66.8493V66.2866C130.855 66.1977 130.81 66.1533 130.719 66.1533H129.359V64.6279C129.359 64.5391 129.314 64.4946 129.223 64.4946H128.543C128.453 64.4946 128.407 64.5391 128.407 64.6279V66.1533H127.637C127.546 66.1533 127.501 66.1977 127.501 66.2866V66.8493C127.501 66.9382 127.546 66.9826 127.637 66.9826H128.407V69.6927C128.407 69.8556 128.438 70.0333 128.498 70.211C128.558 70.3887 128.664 70.5665 128.8 70.7145C128.936 70.8775 129.118 71.0107 129.344 71.1144C129.571 71.2181 129.843 71.2773 130.16 71.2773H131.007C131.097 71.2773 131.143 71.2329 131.143 71.144V70.5813C131.143 70.4924 131.097 70.448 131.007 70.448L131.022 70.4628Z" fill="#21B8BD"/>
    <path d="M134.891 70.4628H134.044C133.848 70.4628 133.697 70.4184 133.576 70.3443C133.47 70.2703 133.379 70.1814 133.334 70.0777C133.274 69.9889 133.243 69.8556 133.228 69.6927V66.9826H134.588C134.679 66.9826 134.724 66.9382 134.724 66.8493V66.2866C134.724 66.1977 134.679 66.1533 134.588 66.1533H133.228V64.6279C133.228 64.5391 133.183 64.4946 133.092 64.4946H132.412C132.321 64.4946 132.276 64.5391 132.276 64.6279V66.1533H131.505C131.415 66.1533 131.369 66.1977 131.369 66.2866V66.8493C131.369 66.9382 131.415 66.9826 131.505 66.9826H132.276V69.6927C132.276 69.8556 132.306 70.0333 132.367 70.211C132.427 70.3887 132.533 70.5665 132.669 70.7145C132.805 70.8775 132.986 71.0107 133.213 71.1144C133.44 71.2181 133.712 71.2773 134.029 71.2773H134.875C134.966 71.2773 135.011 71.2329 135.011 71.144V70.5813C135.011 70.4924 134.966 70.448 134.875 70.448L134.891 70.4628Z" fill="#21B8BD"/>
    <path d="M138.623 69.3373C139.877 69.3225 140.482 68.7893 140.482 67.7083C140.482 67.4565 140.437 67.2344 140.361 67.0418C140.27 66.8493 140.165 66.6864 140.013 66.5531C139.862 66.4198 139.681 66.331 139.485 66.2718C139.288 66.2125 139.061 66.1681 138.835 66.1681H137.444C136.855 66.1681 136.402 66.3014 136.115 66.5679C135.827 66.8345 135.676 67.2196 135.676 67.6935V69.7371C135.676 70.211 135.827 70.5961 136.115 70.8626C136.402 71.1292 136.855 71.2625 137.444 71.2625H140.074C140.165 71.2625 140.21 71.2181 140.21 71.1292V70.5665C140.21 70.4776 140.165 70.4332 140.074 70.4332H137.444C137.142 70.4332 136.915 70.3591 136.795 70.2258C136.674 70.0926 136.613 69.9149 136.613 69.7223V69.3077H138.638L138.623 69.3373ZM136.598 67.7083C136.598 67.5009 136.659 67.338 136.779 67.2047C136.9 67.0715 137.112 66.9974 137.429 66.9974H138.82C138.91 66.9974 139.001 66.9974 139.076 67.027C139.167 67.0418 139.243 67.0863 139.318 67.1455C139.394 67.2047 139.439 67.2788 139.485 67.3676C139.53 67.4565 139.545 67.575 139.545 67.7231C139.545 68.0044 139.469 68.2118 139.333 68.3451C139.197 68.4783 138.956 68.5376 138.623 68.5376H136.598V67.7231V67.7083Z" fill="#21B8BD"/>
    <path d="M144.366 66.1681H142.975C142.386 66.1681 141.948 66.3162 141.661 66.6272C141.374 66.9234 141.222 67.3232 141.222 67.7971V71.144C141.222 71.2329 141.268 71.2773 141.358 71.2773H142.038C142.129 71.2773 142.174 71.2329 142.174 71.144V67.7971C142.174 67.5898 142.235 67.4121 142.356 67.2492C142.477 67.0863 142.688 66.9974 143.006 66.9974H143.927V67.4565C143.927 67.5454 143.973 67.5898 144.063 67.5898H144.744C144.834 67.5898 144.88 67.5454 144.88 67.4565V66.6124C144.88 66.4939 144.834 66.3902 144.744 66.3014C144.653 66.2125 144.547 66.1829 144.411 66.1829L144.366 66.1681Z" fill="#21B8BD"/>
    <path d="M152.723 66.1681L152.058 66.094C152.058 66.094 151.997 66.094 151.967 66.1237C151.937 66.1533 151.922 66.1829 151.922 66.2125C151.876 66.5235 151.846 66.8345 151.786 67.1603C151.74 67.4269 151.71 67.7379 151.65 68.0637C151.604 68.3747 151.559 68.6857 151.514 68.9967C151.438 69.5002 151.347 69.8852 151.227 70.1222C151.106 70.3591 150.909 70.4924 150.622 70.4924H150.229C149.957 70.4924 149.746 70.3739 149.625 70.1222C149.504 69.8852 149.413 69.515 149.338 68.9967C149.292 68.6857 149.247 68.3747 149.202 68.0785C149.156 67.7527 149.111 67.4565 149.066 67.1751C149.02 66.8641 148.975 66.5383 148.93 66.2273C148.93 66.1977 148.914 66.1681 148.884 66.1385C148.869 66.1237 148.839 66.1088 148.809 66.1088C148.809 66.1088 148.809 66.1088 148.794 66.1088L148.129 66.1829C148.129 66.1829 148.053 66.1977 148.038 66.2273C148.008 66.2569 148.008 66.2866 148.008 66.3162C148.053 66.6272 148.098 66.9382 148.144 67.2492C148.189 67.5157 148.219 67.8267 148.265 68.1377C148.31 68.4635 148.355 68.7745 148.401 69.0559C148.431 69.2929 148.476 69.5446 148.537 69.7964C148.597 70.0481 148.688 70.2999 148.809 70.5072C148.93 70.7294 149.111 70.9071 149.322 71.0552C149.534 71.2033 149.836 71.2625 150.199 71.2625H150.592C150.955 71.2625 151.257 71.1884 151.468 71.0552C151.695 70.9071 151.861 70.7294 151.997 70.5072C152.118 70.2851 152.209 70.0481 152.269 69.7964C152.33 69.5298 152.375 69.278 152.405 69.0559C152.451 68.7597 152.481 68.4635 152.541 68.1377L152.677 67.2492C152.723 66.9382 152.768 66.6272 152.813 66.3162C152.813 66.2866 152.813 66.2421 152.783 66.2273C152.753 66.1977 152.723 66.1829 152.692 66.1829L152.723 66.1681Z" fill="#21B8BD"/>
    <path d="M156.546 66.1681H153.917C153.826 66.1681 153.781 66.2125 153.781 66.3014V66.8641C153.781 66.953 153.826 66.9974 153.917 66.9974H156.546C156.848 66.9974 157.075 67.0715 157.196 67.2047C157.317 67.338 157.377 67.5157 157.377 67.7083V68.1229H155.261C154.007 68.1377 153.403 68.6709 153.403 69.7519C153.403 70.0037 153.448 70.2258 153.524 70.4184C153.614 70.6109 153.72 70.7738 153.871 70.9071C154.022 71.0256 154.189 71.1292 154.4 71.1885C154.597 71.2477 154.823 71.2773 155.05 71.2773H156.546C157.135 71.2773 157.589 71.144 157.876 70.8775C158.163 70.6109 158.314 70.2258 158.314 69.7519V67.7083C158.314 67.2344 158.163 66.8493 157.876 66.5828C157.589 66.3162 157.135 66.1829 156.546 66.1829V66.1681ZM157.377 69.7519C157.377 69.9593 157.317 70.1222 157.196 70.2555C157.075 70.3887 156.863 70.4628 156.546 70.4628H155.05C154.959 70.4628 154.869 70.4628 154.793 70.4332C154.702 70.4184 154.627 70.3739 154.551 70.3147C154.476 70.2555 154.43 70.1814 154.385 70.0926C154.34 70.0037 154.325 69.8852 154.325 69.7519C154.325 69.4706 154.4 69.2632 154.536 69.13C154.672 68.9967 154.914 68.9374 155.246 68.9374H157.362V69.7519H157.377Z" fill="#21B8BD"/>
    <path d="M160.052 63.843H159.387C159.312 63.843 159.251 63.9027 159.251 63.9763V71.144C159.251 71.2176 159.312 71.2773 159.387 71.2773H160.052C160.127 71.2773 160.188 71.2176 160.188 71.144V63.9763C160.188 63.9027 160.127 63.843 160.052 63.843Z" fill="#21B8BD"/>
    <path d="M165.825 66.1681H165.145C165.054 66.1681 165.009 66.2125 165.009 66.3014V69.6483C165.009 69.8408 164.948 70.0333 164.827 70.1962C164.707 70.3739 164.495 70.448 164.178 70.448H162.878C162.576 70.448 162.349 70.3591 162.228 70.1962C162.107 70.0333 162.047 69.8408 162.047 69.6483V66.3014C162.047 66.2125 162.001 66.1681 161.911 66.1681H161.231C161.14 66.1681 161.095 66.2125 161.095 66.3014V69.6483C161.095 70.1222 161.246 70.522 161.533 70.8182C161.82 71.1144 162.273 71.2773 162.848 71.2773H164.147C164.737 71.2773 165.175 71.1292 165.462 70.8182C165.749 70.522 165.9 70.1222 165.9 69.6483V66.3014C165.9 66.2125 165.855 66.1681 165.764 66.1681H165.825Z" fill="#21B8BD"/>
    <path d="M171.174 70.4628H168.545C168.243 70.4628 168.016 70.3887 167.895 70.2555C167.774 70.1222 167.714 69.9445 167.714 69.7519V69.3373H169.739C170.993 69.3225 171.598 68.7893 171.598 67.7083C171.598 67.4565 171.552 67.2344 171.477 67.0418C171.386 66.8493 171.28 66.6864 171.129 66.5531C170.978 66.4198 170.797 66.331 170.6 66.2718C170.404 66.2125 170.177 66.1681 169.95 66.1681H168.56C167.971 66.1681 167.517 66.3014 167.23 66.5679C166.943 66.8345 166.792 67.2196 166.792 67.6935V69.7371C166.792 70.211 166.943 70.5961 167.23 70.8626C167.517 71.1292 167.971 71.2625 168.56 71.2625H171.19C171.28 71.2625 171.326 71.2181 171.326 71.1292V70.5665C171.326 70.4776 171.28 70.4332 171.19 70.4332L171.174 70.4628ZM167.729 67.7083C167.729 67.5009 167.789 67.338 167.91 67.2047C168.031 67.0715 168.243 66.9974 168.56 66.9974H169.95C170.041 66.9974 170.132 66.9974 170.207 67.027C170.298 67.0418 170.374 67.0863 170.449 67.1455C170.525 67.2047 170.57 67.2788 170.615 67.3676C170.661 67.4565 170.676 67.575 170.676 67.7231C170.676 68.0044 170.6 68.2118 170.464 68.3451C170.328 68.4783 170.086 68.5376 169.754 68.5376H167.729V67.7231V67.7083Z" fill="#21B8BD"/>
    <path d="M98.017 38.1785L88.5568 58.0378C87.9221 59.4002 86.8492 60.0814 85.3077 60.0814C83.7663 60.0814 82.6782 59.4002 82.0284 58.0378L72.5682 38.1785H77.1774L84.7788 54.1133C84.8846 54.3354 85.0659 54.4539 85.3077 54.4539C85.5495 54.4539 85.7309 54.3354 85.8366 54.1133L93.438 38.1785H98.0019H98.017Z" fill="#21B8BD"/>
    <path d="M120.186 60.037H116.031V57.5639C113.945 59.2373 111.603 60.0666 109.003 60.0666C105.936 60.0666 103.306 59.0004 101.13 56.853C98.9388 54.7057 97.8507 52.1437 97.8507 49.1374C97.8507 46.1311 98.9388 43.5246 101.13 41.3921C103.321 39.2595 105.936 38.1785 109.003 38.1785C112.071 38.1785 114.731 39.2447 116.922 41.3921C119.113 43.5394 120.201 46.1163 120.201 49.1374V60.037H120.186ZM108.988 55.9941C110.923 55.9941 112.585 55.3277 113.975 53.98C115.335 52.6472 116.031 51.033 116.031 49.1374C116.031 47.2418 115.35 45.6127 113.975 44.2503C112.585 42.9174 110.923 42.2362 108.988 42.2362C107.054 42.2362 105.407 42.9026 104.047 44.2503C102.687 45.6127 101.991 47.2418 101.991 49.1374C101.991 51.033 102.671 52.6472 104.047 53.98C105.407 55.3128 107.069 55.9941 108.988 55.9941Z" fill="#21B8BD"/>
    <path d="M154.854 38.1785V49.1374C154.854 52.1437 153.766 54.7205 151.574 56.853C149.383 59.0004 146.769 60.0666 143.701 60.0666C140.633 60.0666 137.973 59.0004 135.782 56.853C133.591 54.7057 132.503 52.1437 132.503 49.1374V38.1785H136.659V49.1374C136.659 51.033 137.339 52.6472 138.714 53.98C140.104 55.3128 141.767 55.9941 143.701 55.9941C145.635 55.9941 147.282 55.3277 148.643 53.98C150.003 52.6472 150.698 51.033 150.698 49.1374V38.1785H154.854Z" fill="#21B8BD"/>
    <path d="M162.153 51.181C162.621 52.5879 163.452 53.7282 164.646 54.6464C165.885 55.5498 167.276 56.0089 168.832 56.0089C170.071 56.0089 171.311 55.7275 172.55 55.1796C173.849 54.602 174.801 53.8763 175.421 52.9878L178.851 55.2684C177.869 56.7049 176.418 57.8749 174.529 58.7634C172.656 59.652 170.751 60.0963 168.817 60.0963C165.734 60.0963 163.09 59.03 160.898 56.8826C158.707 54.7353 157.619 52.1733 157.619 49.167C157.619 46.1607 158.707 43.5542 160.898 41.4217C163.09 39.2743 165.719 38.2081 168.817 38.2081C171.915 38.2081 174.514 39.2743 176.69 41.4217C178.882 43.569 179.97 46.1459 179.97 49.167C179.97 49.8482 179.909 50.5146 179.773 51.181L162.122 51.2107L162.153 51.181ZM168.847 42.251C167.291 42.251 165.9 42.7101 164.661 43.6135C163.467 44.5168 162.636 45.6868 162.168 47.1085H175.497C175.028 45.6868 174.197 44.5317 173.003 43.6135C171.764 42.7101 170.374 42.251 168.847 42.251Z" fill="#21B8BD"/>
    <path d="M128.71 55.2832C128.226 54.8093 127.984 54.2466 127.984 53.5802V30.4332H123.828V53.5802C123.828 55.3721 124.478 56.9123 125.778 58.1859C127.062 59.4446 128.619 60.0666 130.447 60.0666H130.644V55.9941H130.447C129.767 55.9941 129.193 55.7571 128.71 55.2832Z" fill="#21B8BD"/>
  </g>
  <defs>
    <clipPath id="clip0_179_1434">
      <rect width="180" height="80" fill="white"/>
    </clipPath>
  </defs>
</svg>