<svg xmlns="http://www.w3.org/2000/svg" width="28" height="28" viewBox="0 0 28 28" fill="none">
  <mask id="mask0_211_335" style="mask-type:alpha" maskUnits="userSpaceOnUse" x="0" y="0" width="28" height="28">
    <rect width="28" height="28" fill="#D9D9D9"/>
  </mask>
  <g mask="url(#mask0_211_335)">
    <path d="M8.16675 24.5C7.52508 24.5 6.97578 24.2715 6.51883 23.8146C6.06189 23.3576 5.83341 22.8083 5.83341 22.1667V7C5.50286 7 5.22578 6.88819 5.00216 6.66458C4.77855 6.44097 4.66675 6.16389 4.66675 5.83333C4.66675 5.50278 4.77855 5.22569 5.00216 5.00208C5.22578 4.77847 5.50286 4.66667 5.83341 4.66667H10.5001C10.5001 4.33611 10.6119 4.05903 10.8355 3.83542C11.0591 3.61181 11.3362 3.5 11.6667 3.5H16.3334C16.664 3.5 16.9411 3.61181 17.1647 3.83542C17.3883 4.05903 17.5001 4.33611 17.5001 4.66667H22.1667C22.4973 4.66667 22.7744 4.77847 22.998 5.00208C23.2216 5.22569 23.3334 5.50278 23.3334 5.83333C23.3334 6.16389 23.2216 6.44097 22.998 6.66458C22.7744 6.88819 22.4973 7 22.1667 7V22.1667C22.1667 22.8083 21.9383 23.3576 21.4813 23.8146C21.0244 24.2715 20.4751 24.5 19.8334 24.5H8.16675ZM19.8334 7H8.16675V22.1667H19.8334V7ZM11.6667 19.8333C11.9973 19.8333 12.2744 19.7215 12.498 19.4979C12.7216 19.2743 12.8334 18.9972 12.8334 18.6667V10.5C12.8334 10.1694 12.7216 9.89236 12.498 9.66875C12.2744 9.44514 11.9973 9.33333 11.6667 9.33333C11.3362 9.33333 11.0591 9.44514 10.8355 9.66875C10.6119 9.89236 10.5001 10.1694 10.5001 10.5V18.6667C10.5001 18.9972 10.6119 19.2743 10.8355 19.4979C11.0591 19.7215 11.3362 19.8333 11.6667 19.8333ZM16.3334 19.8333C16.664 19.8333 16.9411 19.7215 17.1647 19.4979C17.3883 19.2743 17.5001 18.9972 17.5001 18.6667V10.5C17.5001 10.1694 17.3883 9.89236 17.1647 9.66875C16.9411 9.44514 16.664 9.33333 16.3334 9.33333C16.0029 9.33333 15.7258 9.44514 15.5022 9.66875C15.2786 9.89236 15.1667 10.1694 15.1667 10.5V18.6667C15.1667 18.9972 15.2786 19.2743 15.5022 19.4979C15.7258 19.7215 16.0029 19.8333 16.3334 19.8333Z" fill="#B8B8B8"/>
  </g>
</svg>