<svg width="101" height="45" viewBox="0 0 101 45" fill="none" xmlns="http://www.w3.org/2000/svg">
<g clip-path="url(#clip0_179_1032)">
<path d="M33.9607 11.4373H30.2042V22.4582C30.2042 23.6494 29.9074 24.5824 29.4241 25.3404C29.7124 26.0485 29.8566 26.8149 29.8566 27.6396V33.7873H27.5247V27.6396C27.5247 27.4813 27.5162 27.3314 27.4992 27.1731C26.7361 27.6646 25.8796 28.0644 25.0402 28.4643L24.4381 28.7475L19.6556 30.9634V33.7873H17.3238V32.0463L2.09448 39.1187C2.73045 39.4935 3.45969 39.6851 4.20589 39.6851H30.2212L38.1665 44.9998V15.5691C38.1665 13.2866 36.2756 11.4373 33.9607 11.4373ZM34.0879 33.7873H31.756V21.4669H34.0879V33.7873ZM32.9262 19.7342C32.1969 19.7342 31.5949 19.1511 31.5949 18.4263C31.5949 17.7016 32.1884 17.1185 32.9262 17.1185C33.6639 17.1185 34.2574 17.7016 34.2574 18.4263C34.2574 19.1511 33.6639 19.7342 32.9262 19.7342Z" fill="#FEFEFE"/>
<path d="M29.017 4.07342C29.017 2.3074 27.8129 0.683006 26.0915 0.14154C24.862 -0.249981 23.5138 0.266494 22.2418 0.882932L2.052 10.2711H29.0255V4.07342H29.017Z" fill="#FEFEFE"/>
<path d="M19.1638 23.2745C20.3933 22.0667 21.8603 21.4669 23.5816 21.4669C25.303 21.4669 26.7954 22.0667 28.0249 23.2745C28.2878 23.5328 28.5252 23.816 28.7287 24.0992C28.9068 23.6327 29.017 23.0913 29.017 22.4582V11.4373H0V35.5533C0 36.5613 0.39006 37.5443 1.0769 38.3023L17.3237 30.7634V27.6479C17.3237 25.9485 17.9343 24.4908 19.1638 23.2912V23.2745ZM15.4582 27.6396C15.4582 29.3306 14.8477 30.7801 13.6182 31.9796C12.3886 33.1875 10.9217 33.7873 9.20032 33.7873C7.47897 33.7873 5.98657 33.1875 4.76551 31.9796C3.53597 30.7718 2.92545 29.3306 2.92545 27.6396V21.4752H5.25732V27.6396C5.25732 28.7059 5.63891 29.6139 6.41054 30.3636C7.19066 31.1133 8.12341 31.4965 9.2088 31.4965C10.2942 31.4965 11.2185 31.1216 11.9816 30.3636C12.7448 29.6139 13.1348 28.7059 13.1348 27.6396V21.4752H15.4667V27.6396H15.4582Z" fill="#FEFEFE"/>
<path d="M27.16 25.9986C26.965 25.5988 26.7021 25.2323 26.3629 24.8907C25.5998 24.141 24.667 23.7578 23.5901 23.7578C22.5132 23.7578 21.5804 24.1327 20.8173 24.8907C20.0541 25.6571 19.6641 26.5734 19.6641 27.6397V29.6723L24.5313 27.4148C25.5234 26.9483 26.4307 26.5235 27.1685 25.9986H27.16Z" fill="#FEFEFE"/>
<path d="M49.3341 39.6353H48.1724C48.0028 39.6353 47.8756 39.5936 47.8078 39.5186C47.74 39.4437 47.706 39.3437 47.706 39.2354V38.0858C47.706 37.9692 47.74 37.8776 47.8078 37.8026C47.8756 37.7276 47.9943 37.686 48.1724 37.686H49.3087C49.3595 37.686 49.385 37.661 49.385 37.611V37.2945C49.385 37.2445 49.3595 37.2195 49.3087 37.2195H48.1724C47.8417 37.2195 47.5873 37.2945 47.4262 37.4444C47.2651 37.5943 47.1803 37.8109 47.1803 38.0775V39.2271C47.1803 39.4936 47.2651 39.7102 47.4262 39.8602C47.5873 40.0101 47.8417 40.0851 48.1724 40.0851H49.3341C49.385 40.0851 49.4104 40.0601 49.4104 40.0101V39.6936C49.4104 39.6436 49.385 39.6186 49.3341 39.6186V39.6353Z" fill="#FEFEFE"/>
<path d="M51.6236 37.2195H50.8435C50.5128 37.2195 50.2669 37.3028 50.1058 37.4777C49.9447 37.6443 49.8599 37.8692 49.8599 38.1358V40.0184C49.8599 40.0684 49.8853 40.0934 49.9362 40.0934H50.3178C50.3686 40.0934 50.3941 40.0684 50.3941 40.0184V38.1358C50.3941 38.0275 50.428 37.9192 50.4958 37.8276C50.5637 37.736 50.6824 37.686 50.8605 37.686H51.3777V37.9442C51.3777 37.9942 51.4031 38.0192 51.454 38.0192H51.8356C51.8865 38.0192 51.9119 37.9942 51.9119 37.9442V37.4694C51.9119 37.4027 51.8865 37.3444 51.8356 37.2945C51.7847 37.2445 51.7254 37.2278 51.6491 37.2278L51.6236 37.2195Z" fill="#FEFEFE"/>
<path d="M53.8537 39.0022C54.5575 38.9938 54.8967 38.6939 54.8967 38.0858C54.8967 37.9442 54.8713 37.8193 54.8289 37.711C54.778 37.6027 54.7186 37.511 54.6338 37.4361C54.549 37.3611 54.4473 37.3111 54.337 37.2778C54.2268 37.2445 54.0996 37.2195 53.9724 37.2195H53.1923C52.8616 37.2195 52.6072 37.2945 52.4461 37.4444C52.285 37.5943 52.2002 37.8109 52.2002 38.0775V39.2271C52.2002 39.4936 52.285 39.7102 52.4461 39.8602C52.6072 40.0101 52.8616 40.0851 53.1923 40.0851H54.6677C54.7186 40.0851 54.7441 40.0601 54.7441 40.0101V39.6936C54.7441 39.6436 54.7186 39.6186 54.6677 39.6186H53.1923C53.0227 39.6186 52.8955 39.5769 52.8277 39.502C52.7598 39.427 52.7259 39.327 52.7259 39.2187V38.9855H53.8622L53.8537 39.0022ZM52.7174 38.0858C52.7174 37.9692 52.7514 37.8776 52.8192 37.8026C52.887 37.7276 53.0058 37.686 53.1838 37.686H53.9639C54.0148 37.686 54.0657 37.686 54.1081 37.7026C54.159 37.711 54.2014 37.736 54.2438 37.7693C54.2862 37.8026 54.3116 37.8443 54.337 37.8942C54.3625 37.9442 54.371 38.0109 54.371 38.0942C54.371 38.2524 54.3286 38.3691 54.2522 38.444C54.1759 38.519 54.0403 38.5523 53.8537 38.5523H52.7174V38.0942V38.0858Z" fill="#FEFEFE"/>
<path d="M57.0251 37.2195H55.5497C55.4988 37.2195 55.4733 37.2445 55.4733 37.2945V37.611C55.4733 37.661 55.4988 37.686 55.5497 37.686H57.0251C57.1947 37.686 57.3219 37.7276 57.3897 37.8026C57.4576 37.8776 57.4915 37.9775 57.4915 38.0858V38.3191H56.3043C55.6005 38.3274 55.2614 38.6273 55.2614 39.2354C55.2614 39.377 55.2868 39.502 55.3292 39.6103C55.3801 39.7186 55.4394 39.8102 55.5242 39.8852C55.609 39.9518 55.7023 40.0101 55.821 40.0434C55.9312 40.0768 56.0584 40.0934 56.1856 40.0934H57.0251C57.3558 40.0934 57.6102 40.0184 57.7713 39.8685C57.9324 39.7186 58.0172 39.502 58.0172 39.2354V38.0858C58.0172 37.8193 57.9324 37.6027 57.7713 37.4527C57.6102 37.3028 57.3558 37.2278 57.0251 37.2278V37.2195ZM57.483 39.2354C57.483 39.352 57.4491 39.4437 57.3812 39.5186C57.3134 39.5936 57.1947 39.6353 57.0166 39.6353H56.1771C56.1263 39.6353 56.0754 39.6353 56.033 39.6186C55.9821 39.6103 55.9397 39.5853 55.8973 39.552C55.8549 39.5186 55.8295 39.477 55.804 39.427C55.7786 39.377 55.7701 39.3104 55.7701 39.2354C55.7701 39.0771 55.8125 38.9605 55.8888 38.8855C55.9652 38.8106 56.1008 38.7772 56.2874 38.7772H57.4745V39.2354H57.483Z" fill="#FEFEFE"/>
<path d="M60.2218 39.6352H59.747C59.6367 39.6352 59.5519 39.6102 59.4841 39.5685C59.4248 39.5269 59.3739 39.4769 59.3484 39.4186C59.3145 39.3686 59.2976 39.2936 59.2891 39.202V37.6776H60.0522C60.1031 37.6776 60.1286 37.6526 60.1286 37.6026V37.286C60.1286 37.2361 60.1031 37.2111 60.0522 37.2111H59.2891V36.353C59.2891 36.3031 59.2636 36.2781 59.2128 36.2781H58.8312C58.7803 36.2781 58.7549 36.3031 58.7549 36.353V37.2111H58.3224C58.2715 37.2111 58.2461 37.2361 58.2461 37.286V37.6026C58.2461 37.6526 58.2715 37.6776 58.3224 37.6776H58.7549V39.202C58.7549 39.2936 58.7718 39.3853 58.8057 39.4936C58.8397 39.5935 58.899 39.6935 58.9753 39.7768C59.0517 39.8684 59.1534 39.9434 59.2806 40.0017C59.4078 40.06 59.5604 40.0933 59.7385 40.0933H60.2134C60.2642 40.0933 60.2897 40.0683 60.2897 40.0184V39.7018C60.2897 39.6518 60.2642 39.6268 60.2134 39.6268L60.2218 39.6352Z" fill="#FEFEFE"/>
<path d="M62.647 39.0022C63.3508 38.9938 63.69 38.6939 63.69 38.0858C63.69 37.9442 63.6646 37.8193 63.6222 37.711C63.5713 37.6027 63.512 37.511 63.4272 37.4361C63.3424 37.3611 63.2406 37.3111 63.1304 37.2778C63.0201 37.2445 62.8929 37.2195 62.7658 37.2195H61.9856C61.6549 37.2195 61.4005 37.2945 61.2394 37.4444C61.0783 37.5943 60.9935 37.8109 60.9935 38.0775V39.2271C60.9935 39.4936 61.0783 39.7102 61.2394 39.8602C61.4005 40.0101 61.6549 40.0851 61.9856 40.0851H63.4611C63.512 40.0851 63.5289 40.0601 63.5289 40.0101V39.6936C63.5289 39.6436 63.5035 39.6186 63.4611 39.6186H61.9856C61.816 39.6186 61.6889 39.5769 61.621 39.502C61.5532 39.427 61.5193 39.327 61.5193 39.2187V38.9855H62.6555L62.647 39.0022ZM61.5193 38.0858C61.5193 37.9692 61.5532 37.8776 61.621 37.8026C61.6889 37.7276 61.8076 37.686 61.9856 37.686H62.7658C62.8166 37.686 62.8675 37.686 62.9099 37.7026C62.9608 37.711 63.0032 37.736 63.0456 37.7693C63.088 37.8026 63.1134 37.8443 63.1389 37.8942C63.1643 37.9442 63.1728 38.0109 63.1728 38.0942C63.1728 38.2524 63.1304 38.3691 63.0541 38.444C62.9777 38.519 62.8421 38.5523 62.6555 38.5523H61.5193V38.0942V38.0858Z" fill="#FEFEFE"/>
<path d="M67.2005 37.2195H66.0134V35.9199C66.0134 35.87 65.988 35.845 65.9371 35.845H65.5555C65.5046 35.845 65.4877 35.87 65.4877 35.9199V39.2271C65.4877 39.4936 65.5725 39.7102 65.7336 39.8602C65.8947 40.0101 66.1491 40.0851 66.4798 40.0851H67.209C67.5397 40.0851 67.7941 40.0101 67.9552 39.8602C68.1163 39.7102 68.2011 39.4936 68.2011 39.2271V38.0775C68.2011 37.8109 68.1163 37.5943 67.9552 37.4444C67.7941 37.2944 67.5397 37.2195 67.209 37.2195H67.2005ZM67.6669 39.2354C67.6669 39.352 67.633 39.4436 67.5652 39.5186C67.4973 39.5936 67.3786 39.6352 67.2005 39.6352H66.4713C66.3017 39.6352 66.1745 39.5936 66.1067 39.5186C66.0388 39.4436 66.0049 39.3437 66.0049 39.2354V37.686H67.1921C67.3616 37.686 67.4888 37.7276 67.5567 37.8026C67.6245 37.8776 67.6584 37.9775 67.6584 38.0858V39.2354H67.6669Z" fill="#FEFEFE"/>
<path d="M70.321 39.0022C71.0248 38.9938 71.364 38.6939 71.364 38.0858C71.364 37.9442 71.3385 37.8193 71.2961 37.711C71.2453 37.6027 71.1859 37.511 71.1011 37.4361C71.0163 37.3611 70.9146 37.3111 70.8043 37.2778C70.6941 37.2445 70.5669 37.2195 70.4397 37.2195H69.6596C69.3289 37.2195 69.0745 37.2945 68.9134 37.4444C68.7523 37.5943 68.6675 37.8109 68.6675 38.0775V39.2271C68.6675 39.4936 68.7523 39.7102 68.9134 39.8602C69.0745 40.0101 69.3289 40.0851 69.6596 40.0851H71.135C71.1859 40.0851 71.2113 40.0601 71.2113 40.0101V39.6936C71.2113 39.6436 71.1859 39.6186 71.135 39.6186H69.6596C69.49 39.6186 69.3628 39.5769 69.295 39.502C69.2271 39.427 69.1932 39.327 69.1932 39.2187V38.9855H70.3295L70.321 39.0022ZM69.1932 38.0858C69.1932 37.9692 69.2271 37.8776 69.295 37.8026C69.3628 37.7276 69.4815 37.686 69.6596 37.686H70.4397C70.4906 37.686 70.5415 37.686 70.5839 37.7026C70.6347 37.711 70.6771 37.736 70.7195 37.7693C70.7619 37.8026 70.7874 37.8443 70.8128 37.8942C70.8382 37.9442 70.8467 38.0109 70.8467 38.0942C70.8467 38.2524 70.8043 38.3691 70.728 38.444C70.6517 38.519 70.516 38.5523 70.3295 38.5523H69.1932V38.0942V38.0858Z" fill="#FEFEFE"/>
<path d="M73.5178 39.6352H73.043C72.9328 39.6352 72.848 39.6102 72.7801 39.5685C72.7208 39.5269 72.6699 39.4769 72.6445 39.4186C72.6105 39.3686 72.5936 39.2936 72.5851 39.202V37.6776H73.3483C73.3991 37.6776 73.4246 37.6526 73.4246 37.6026V37.286C73.4246 37.2361 73.3991 37.2111 73.3483 37.2111H72.5851V36.353C72.5851 36.3031 72.5597 36.2781 72.5088 36.2781H72.1272C72.0763 36.2781 72.0509 36.3031 72.0509 36.353V37.2111H71.6184C71.5675 37.2111 71.5421 37.2361 71.5421 37.286V37.6026C71.5421 37.6526 71.5675 37.6776 71.6184 37.6776H72.0509V39.202C72.0509 39.2936 72.0678 39.3936 72.1018 39.4936C72.1357 39.5935 72.195 39.6935 72.2714 39.7768C72.3477 39.8684 72.4494 39.9434 72.5766 40.0017C72.7038 40.06 72.8564 40.0933 73.0345 40.0933H73.5094C73.5602 40.0933 73.5857 40.0683 73.5857 40.0184V39.7018C73.5857 39.6518 73.5602 39.6268 73.5094 39.6268L73.5178 39.6352Z" fill="#FEFEFE"/>
<path d="M75.6886 39.6352H75.2138C75.1035 39.6352 75.0187 39.6102 74.9509 39.5685C74.8915 39.5269 74.8407 39.4769 74.8152 39.4186C74.7813 39.3686 74.7644 39.2936 74.7559 39.202V37.6776H75.519C75.5699 37.6776 75.5954 37.6526 75.5954 37.6026V37.286C75.5954 37.2361 75.5699 37.2111 75.519 37.2111H74.7559V36.353C74.7559 36.3031 74.7304 36.2781 74.6796 36.2781H74.298C74.2471 36.2781 74.2217 36.3031 74.2217 36.353V37.2111H73.7892C73.7383 37.2111 73.7129 37.2361 73.7129 37.286V37.6026C73.7129 37.6526 73.7383 37.6776 73.7892 37.6776H74.2217V39.202C74.2217 39.2936 74.2386 39.3936 74.2725 39.4936C74.3065 39.5935 74.3658 39.6935 74.4421 39.7768C74.5184 39.8684 74.6202 39.9434 74.7474 40.0017C74.8746 40.06 75.0272 40.0933 75.2053 40.0933H75.6801C75.731 40.0933 75.7565 40.0683 75.7565 40.0184V39.7018C75.7565 39.6518 75.731 39.6268 75.6801 39.6268L75.6886 39.6352Z" fill="#FEFEFE"/>
<path d="M77.783 39.0022C78.4868 38.9938 78.826 38.6939 78.826 38.0858C78.826 37.9442 78.8006 37.8193 78.7582 37.711C78.7073 37.6027 78.6479 37.511 78.5632 37.4361C78.4784 37.3611 78.3766 37.3111 78.2664 37.2778C78.1561 37.2445 78.0289 37.2195 77.9017 37.2195H77.1216C76.7909 37.2195 76.5365 37.2945 76.3754 37.4444C76.2143 37.5943 76.1295 37.8109 76.1295 38.0775V39.2271C76.1295 39.4936 76.2143 39.7102 76.3754 39.8602C76.5365 40.0101 76.7909 40.0851 77.1216 40.0851H78.5971C78.6479 40.0851 78.6734 40.0601 78.6734 40.0101V39.6936C78.6734 39.6436 78.6479 39.6186 78.5971 39.6186H77.1216C76.952 39.6186 76.8248 39.5769 76.757 39.502C76.6892 39.427 76.6553 39.327 76.6553 39.2187V38.9855H77.7915L77.783 39.0022ZM76.6468 38.0858C76.6468 37.9692 76.6807 37.8776 76.7485 37.8026C76.8164 37.7276 76.9351 37.686 77.1131 37.686H77.8933C77.9441 37.686 77.995 37.686 78.0374 37.7026C78.0883 37.711 78.1307 37.736 78.1731 37.7693C78.2155 37.8026 78.2409 37.8443 78.2664 37.8942C78.2918 37.9442 78.3003 38.0109 78.3003 38.0942C78.3003 38.2524 78.2579 38.3691 78.1816 38.444C78.1053 38.519 77.9696 38.5523 77.783 38.5523H76.6468V38.0942V38.0858Z" fill="#FEFEFE"/>
<path d="M81.0052 37.2195H80.2251C79.8944 37.2195 79.6485 37.3028 79.4874 37.4777C79.3263 37.6443 79.2415 37.8692 79.2415 38.1358V40.0184C79.2415 40.0684 79.2669 40.0934 79.3178 40.0934H79.6994C79.7502 40.0934 79.7757 40.0684 79.7757 40.0184V38.1358C79.7757 38.0192 79.8096 37.9192 79.8774 37.8276C79.9453 37.736 80.064 37.686 80.242 37.686H80.7593V37.9442C80.7593 37.9942 80.7847 38.0192 80.8356 38.0192H81.2172C81.2681 38.0192 81.2935 37.9942 81.2935 37.9442V37.4694C81.2935 37.4027 81.2681 37.3444 81.2172 37.2945C81.1663 37.2445 81.107 37.2278 81.0306 37.2278L81.0052 37.2195Z" fill="#FEFEFE"/>
<path d="M85.6944 37.2194L85.3213 37.1777C85.3213 37.1777 85.2874 37.1777 85.2705 37.1944C85.2535 37.2111 85.245 37.2277 85.245 37.2444C85.2196 37.4193 85.2026 37.5942 85.1687 37.7775C85.1433 37.9275 85.1263 38.1024 85.0924 38.2857C85.067 38.4606 85.0415 38.6355 85.0161 38.8105C84.9737 39.0937 84.9228 39.3103 84.855 39.4436C84.7871 39.5768 84.6769 39.6518 84.5158 39.6518H84.2953C84.1427 39.6518 84.024 39.5852 83.9561 39.4436C83.8883 39.3103 83.8374 39.102 83.795 38.8105C83.7696 38.6355 83.7442 38.4606 83.7187 38.294C83.6933 38.1107 83.6678 37.9441 83.6424 37.7858C83.617 37.6109 83.5915 37.4276 83.5661 37.2527C83.5661 37.236 83.5576 37.2194 83.5406 37.2027C83.5322 37.1944 83.5152 37.1861 83.4982 37.1861C83.4982 37.1861 83.4982 37.1861 83.4898 37.1861L83.1167 37.2277C83.1167 37.2277 83.0743 37.236 83.0658 37.2527C83.0488 37.2694 83.0488 37.286 83.0488 37.3027C83.0743 37.4776 83.0997 37.6526 83.1251 37.8275C83.1506 37.9774 83.1675 38.1524 83.193 38.3273C83.2184 38.5106 83.2439 38.6855 83.2693 38.8438C83.2863 38.9771 83.3117 39.1187 83.3456 39.2603C83.3795 39.4019 83.4304 39.5435 83.4982 39.6601C83.5661 39.7851 83.6678 39.8851 83.7865 39.9684C83.9053 40.0517 84.0749 40.085 84.2784 40.085H84.4988C84.7023 40.085 84.8719 40.0433 84.9906 39.9684C85.1178 39.8851 85.2111 39.7851 85.2874 39.6601C85.3553 39.5352 85.4061 39.4019 85.4401 39.2603C85.474 39.1104 85.4994 38.9687 85.5164 38.8438C85.5418 38.6772 85.5588 38.5106 85.5927 38.3273L85.669 37.8275C85.6944 37.6526 85.7199 37.4776 85.7453 37.3027C85.7453 37.286 85.7453 37.261 85.7284 37.2527C85.7114 37.236 85.6944 37.2277 85.6775 37.2277L85.6944 37.2194Z" fill="#FEFEFE"/>
<path d="M87.8398 37.2195H86.3644C86.3135 37.2195 86.288 37.2445 86.288 37.2945V37.611C86.288 37.661 86.3135 37.686 86.3644 37.686H87.8398C88.0094 37.686 88.1366 37.7276 88.2044 37.8026C88.2723 37.8776 88.3062 37.9775 88.3062 38.0858V38.3191H87.119C86.4152 38.3274 86.076 38.6273 86.076 39.2354C86.076 39.377 86.1015 39.502 86.1439 39.6103C86.1948 39.7186 86.2541 39.8102 86.3389 39.8852C86.4237 39.9518 86.517 40.0101 86.6357 40.0434C86.7459 40.0768 86.8731 40.0934 87.0003 40.0934H87.8398C88.1705 40.0934 88.4249 40.0184 88.586 39.8685C88.7471 39.7186 88.8319 39.502 88.8319 39.2354V38.0858C88.8319 37.8193 88.7471 37.6027 88.586 37.4527C88.4249 37.3028 88.1705 37.2278 87.8398 37.2278V37.2195ZM88.3062 39.2354C88.3062 39.352 88.2723 39.4437 88.2044 39.5186C88.1366 39.5936 88.0179 39.6353 87.8398 39.6353H87.0003C86.9494 39.6353 86.8986 39.6353 86.8562 39.6186C86.8053 39.6103 86.7629 39.5853 86.7205 39.552C86.6781 39.5186 86.6527 39.477 86.6272 39.427C86.6018 39.377 86.5933 39.3104 86.5933 39.2354C86.5933 39.0771 86.6357 38.9605 86.712 38.8855C86.7883 38.8106 86.924 38.7772 87.1106 38.7772H88.2977V39.2354H88.3062Z" fill="#FEFEFE"/>
<path d="M89.8071 35.9116H89.434C89.3918 35.9116 89.3577 35.9452 89.3577 35.9866V40.0184C89.3577 40.0598 89.3918 40.0934 89.434 40.0934H89.8071C89.8492 40.0934 89.8834 40.0598 89.8834 40.0184V35.9866C89.8834 35.9452 89.8492 35.9116 89.8071 35.9116Z" fill="#FEFEFE"/>
<path d="M93.0462 37.2195H92.6646C92.6137 37.2195 92.5883 37.2445 92.5883 37.2945V39.1771C92.5883 39.2854 92.5544 39.3937 92.4865 39.4853C92.4187 39.5853 92.3 39.6269 92.1219 39.6269H91.3927C91.2231 39.6269 91.0959 39.5769 91.0281 39.4853C90.9602 39.3937 90.9263 39.2854 90.9263 39.1771V37.2945C90.9263 37.2445 90.9009 37.2195 90.85 37.2195H90.4684C90.4175 37.2195 90.3921 37.2445 90.3921 37.2945V39.1771C90.3921 39.4437 90.4769 39.6686 90.638 39.8352C90.7991 40.0018 91.0535 40.0934 91.3757 40.0934H92.105C92.4357 40.0934 92.6816 40.0101 92.8427 39.8352C93.0038 39.6686 93.0886 39.4437 93.0886 39.1771V37.2945C93.0886 37.2445 93.0632 37.2195 93.0123 37.2195H93.0462Z" fill="#FEFEFE"/>
<path d="M96.0479 39.6353H94.5725C94.4029 39.6353 94.2757 39.5936 94.2079 39.5186C94.14 39.4437 94.1061 39.3437 94.1061 39.2354V39.0022H95.2424C95.9462 38.9938 96.2854 38.6939 96.2854 38.0858C96.2854 37.9442 96.2599 37.8193 96.2175 37.711C96.1667 37.6027 96.1073 37.511 96.0225 37.4361C95.9377 37.3611 95.8359 37.3111 95.7257 37.2778C95.6155 37.2445 95.4883 37.2195 95.3611 37.2195H94.581C94.2503 37.2195 93.9959 37.2945 93.8348 37.4444C93.6737 37.5943 93.5889 37.8109 93.5889 38.0775V39.2271C93.5889 39.4936 93.6737 39.7102 93.8348 39.8602C93.9959 40.0101 94.2503 40.0851 94.581 40.0851H96.0564C96.1073 40.0851 96.1327 40.0601 96.1327 40.0101V39.6936C96.1327 39.6436 96.1073 39.6186 96.0564 39.6186L96.0479 39.6353ZM94.1146 38.0858C94.1146 37.9692 94.1485 37.8776 94.2164 37.8026C94.2842 37.7276 94.4029 37.686 94.581 37.686H95.3611C95.412 37.686 95.4628 37.686 95.5052 37.7026C95.5561 37.711 95.5985 37.736 95.6409 37.7693C95.6833 37.8026 95.7088 37.8443 95.7342 37.8942C95.7596 37.9442 95.7681 38.0109 95.7681 38.0942C95.7681 38.2524 95.7257 38.3691 95.6494 38.444C95.5731 38.519 95.4374 38.5523 95.2509 38.5523H94.1146V38.0942V38.0858Z" fill="#FEFEFE"/>
<path d="M54.9984 21.4753L49.6902 32.6462C49.3341 33.4126 48.7321 33.7958 47.8671 33.7958C47.0022 33.7958 46.3917 33.4126 46.0271 32.6462L40.7189 21.4753H43.3051L47.5704 30.4387C47.6297 30.5636 47.7315 30.6303 47.8671 30.6303C48.0028 30.6303 48.1046 30.5636 48.1639 30.4387L52.4291 21.4753H54.99H54.9984Z" fill="#FEFEFE"/>
<path d="M67.4379 33.7708H65.1061V32.3796C63.9359 33.321 62.6215 33.7874 61.1631 33.7874C59.4417 33.7874 57.9663 33.1877 56.7452 31.9798C55.5157 30.7719 54.9052 29.3308 54.9052 27.6397C54.9052 25.9487 55.5157 24.4826 56.7452 23.283C57.9747 22.0834 59.4417 21.4753 61.1631 21.4753C62.8844 21.4753 64.3768 22.0751 65.6064 23.283C66.8359 24.4909 67.4464 25.9404 67.4464 27.6397V33.7708H67.4379ZM61.1546 31.4966C62.24 31.4966 63.1727 31.1218 63.9528 30.3637C64.716 29.614 65.1061 28.706 65.1061 27.6397C65.1061 26.5735 64.7245 25.6571 63.9528 24.8907C63.1727 24.141 62.24 23.7578 61.1546 23.7578C60.0692 23.7578 59.1449 24.1327 58.3818 24.8907C57.6186 25.6571 57.2285 26.5735 57.2285 27.6397C57.2285 28.706 57.6101 29.614 58.3818 30.3637C59.1449 31.1134 60.0777 31.4966 61.1546 31.4966Z" fill="#FEFEFE"/>
<path d="M86.89 21.4753V27.6397C86.89 29.3308 86.2795 30.7802 85.05 31.9798C83.8204 33.1877 82.3535 33.7874 80.6321 33.7874C78.9108 33.7874 77.4184 33.1877 76.1888 31.9798C74.9593 30.7719 74.3488 29.3308 74.3488 27.6397V21.4753H76.6806V27.6397C76.6806 28.706 77.0622 29.614 77.8339 30.3637C78.614 31.1134 79.5467 31.4966 80.6321 31.4966C81.7175 31.4966 82.6418 31.1218 83.4049 30.3637C84.1681 29.614 84.5581 28.706 84.5581 27.6397V21.4753H86.89Z" fill="#FEFEFE"/>
<path d="M90.9856 28.7892C91.2485 29.5806 91.7149 30.222 92.3848 30.7385C93.0801 31.2467 93.8602 31.5049 94.7336 31.5049C95.4289 31.5049 96.1242 31.3466 96.8196 31.0384C97.5488 30.7135 98.083 30.3053 98.4307 29.8055L100.356 31.0884C99.8044 31.8964 98.9903 32.5545 97.9304 33.0543C96.8789 33.5541 95.8105 33.8041 94.7251 33.8041C92.9953 33.8041 91.5114 33.2043 90.2818 31.9964C89.0523 30.7885 88.4418 29.3474 88.4418 27.6563C88.4418 25.9653 89.0523 24.4992 90.2818 23.2996C91.5114 22.0917 92.9868 21.4919 94.7251 21.4919C96.4634 21.4919 97.9219 22.0917 99.143 23.2996C100.373 24.5075 100.983 25.957 100.983 27.6563C100.983 28.0395 100.949 28.4144 100.873 28.7892L90.9687 28.8059L90.9856 28.7892ZM94.7421 23.7661C93.8687 23.7661 93.0886 24.0243 92.3932 24.5325C91.7234 25.0406 91.257 25.6987 90.9941 26.4984H98.4731C98.2102 25.6987 97.7438 25.049 97.074 24.5325C96.3786 24.0243 95.5985 23.7661 94.7421 23.7661Z" fill="#FEFEFE"/>
<path d="M72.2205 31.0968C71.9491 30.8302 71.8134 30.5137 71.8134 30.1388V17.1187H69.4816V30.1388C69.4816 31.1468 69.8462 32.0131 70.5754 32.7295C71.2962 33.4376 72.1696 33.7875 73.1956 33.7875H73.3058V31.4967H73.1956C72.814 31.4967 72.4918 31.3634 72.2205 31.0968Z" fill="#FEFEFE"/>
</g>
<defs>
<clipPath id="clip0_179_1032">
<rect width="101" height="45" fill="white"/>
</clipPath>
</defs>
</svg>
