<svg xmlns="http://www.w3.org/2000/svg" width="32" height="32" viewBox="0 0 32 32" fill="none">
  <mask id="mask0_366_129" style="mask-type:alpha" maskUnits="userSpaceOnUse" x="0" y="0" width="32" height="32">
    <rect width="32" height="32" fill="#D9D9D9"/>
  </mask>
  <g mask="url(#mask0_366_129)">
    <path d="M7.99992 25.3333H11.9999V18.6667C11.9999 18.2889 12.1277 17.9722 12.3833 17.7167C12.6388 17.4611 12.9555 17.3333 13.3333 17.3333H18.6666C19.0444 17.3333 19.361 17.4611 19.6166 17.7167C19.8721 17.9722 19.9999 18.2889 19.9999 18.6667V25.3333H23.9999V13.3333L15.9999 7.33333L7.99992 13.3333V25.3333ZM5.33325 25.3333V13.3333C5.33325 12.9111 5.4277 12.5111 5.61659 12.1333C5.80547 11.7556 6.06659 11.4444 6.39992 11.2L14.3999 5.2C14.8666 4.84444 15.3999 4.66667 15.9999 4.66667C16.5999 4.66667 17.1333 4.84444 17.5999 5.2L25.5999 11.2C25.9333 11.4444 26.1944 11.7556 26.3833 12.1333C26.5721 12.5111 26.6666 12.9111 26.6666 13.3333V25.3333C26.6666 26.0667 26.4055 26.6944 25.8833 27.2167C25.361 27.7389 24.7333 28 23.9999 28H18.6666C18.2888 28 17.9721 27.8722 17.7166 27.6167C17.461 27.3611 17.3333 27.0444 17.3333 26.6667V20H14.6666V26.6667C14.6666 27.0444 14.5388 27.3611 14.2833 27.6167C14.0277 27.8722 13.711 28 13.3333 28H7.99992C7.26659 28 6.63881 27.7389 6.11659 27.2167C5.59436 26.6944 5.33325 26.0667 5.33325 25.3333Z" fill="#0B0B0B"/>
  </g>
</svg>