<svg xmlns="http://www.w3.org/2000/svg" width="28" height="28" viewBox="0 0 28 28" fill="none">
  <mask id="mask0_211_332" style="mask-type:alpha" maskUnits="userSpaceOnUse" x="0" y="0" width="28" height="28">
    <rect width="28" height="28" fill="#D9D9D9"/>
  </mask>
  <g mask="url(#mask0_211_332)">
    <path d="M4.871 24.5C4.46267 24.5972 4.10781 24.4951 3.80642 24.1937C3.50503 23.8924 3.40295 23.5375 3.50017 23.1292L4.66684 17.5583L10.4418 23.3333L4.871 24.5ZM10.4418 23.3333L4.66684 17.5583L18.0252 4.19999C18.4724 3.75277 19.0266 3.52916 19.6877 3.52916C20.3488 3.52916 20.9029 3.75277 21.3502 4.19999L23.8002 6.64999C24.2474 7.09721 24.471 7.65138 24.471 8.31249C24.471 8.9736 24.2474 9.52777 23.8002 9.97499L10.4418 23.3333ZM19.6877 5.83333L7.61267 17.9083L10.0918 20.3875L22.1668 8.31249L19.6877 5.83333Z" fill="#B8B8B8"/>
  </g>
</svg>