<svg width="90" height="40" viewBox="0 0 90 40" fill="none" xmlns="http://www.w3.org/2000/svg">
<path d="M30.2619 10.1666H26.9146V19.963C26.9146 21.0218 26.6501 21.8512 26.2195 22.525C26.4764 23.1544 26.6048 23.8356 26.6048 24.5687V30.0333H24.5269V24.5687C24.5269 24.428 24.5193 24.2947 24.5042 24.154C23.8242 24.5909 23.061 24.9463 22.313 25.3017L21.7765 25.5535L17.5149 27.5231V30.0333H15.437V28.4857L1.86633 34.7723C2.43304 35.1055 3.08286 35.2758 3.74779 35.2758H26.9297L34.0097 40V13.8393C34.0097 11.8104 32.3247 10.1666 30.2619 10.1666ZM30.3753 30.0333H28.2974V19.0818H30.3753V30.0333ZM29.3401 17.5416C28.6903 17.5416 28.1538 17.0233 28.1538 16.3791C28.1538 15.7349 28.6827 15.2166 29.3401 15.2166C29.9975 15.2166 30.5264 15.7349 30.5264 16.3791C30.5264 17.0233 29.9975 17.5416 29.3401 17.5416Z" fill="#FEFEFE"/>
<path d="M25.8568 3.62088C25.8568 2.05109 24.7839 0.60718 23.25 0.125876C22.1544 -0.222143 20.953 0.236946 19.8195 0.784891L1.82861 9.12995H25.8644V3.62088H25.8568Z" fill="#FEFEFE"/>
<path d="M17.0767 20.6886C18.1723 19.615 19.4795 19.0818 21.0133 19.0818C22.5472 19.0818 23.8771 19.615 24.9727 20.6886C25.2069 20.9182 25.4185 21.1699 25.5999 21.4217C25.7585 21.007 25.8568 20.5257 25.8568 19.963V10.1666H0V31.6031C0 32.4991 0.347578 33.3728 0.959617 34.0466L15.437 27.3454V24.5761C15.437 23.0655 15.981 21.7697 17.0767 20.7034V20.6886ZM13.7747 24.5687C13.7747 26.0718 13.2306 27.3602 12.135 28.4265C11.0394 29.5002 9.73218 30.0333 8.1983 30.0333C6.66443 30.0333 5.33456 29.5002 4.24649 28.4265C3.15087 27.3528 2.60683 26.0718 2.60683 24.5687V19.0892H4.68474V24.5687C4.68474 25.5165 5.02477 26.3236 5.71237 26.99C6.40752 27.6564 7.23869 27.997 8.20586 27.997C9.17303 27.997 9.99664 27.6638 10.6767 26.99C11.3567 26.3236 11.7043 25.5165 11.7043 24.5687V19.0892H13.7822V24.5687H13.7747Z" fill="#FEFEFE"/>
<path d="M24.202 23.11C24.0282 22.7545 23.794 22.4287 23.4917 22.1251C22.8117 21.4587 21.9805 21.1181 21.0209 21.1181C20.0613 21.1181 19.2301 21.4513 18.5501 22.1251C17.87 22.8064 17.5225 23.6209 17.5225 24.5687V26.3754L21.8596 24.3688C22.7437 23.9541 23.5522 23.5765 24.2096 23.11H24.202Z" fill="#FEFEFE"/>
<path d="M43.961 35.2314H42.9258C42.7747 35.2314 42.6613 35.1944 42.6009 35.1277C42.5404 35.0611 42.5102 34.9722 42.5102 34.876V33.8541C42.5102 33.7505 42.5404 33.669 42.6009 33.6024C42.6613 33.5357 42.7671 33.4987 42.9258 33.4987H43.9383C43.9837 33.4987 44.0063 33.4765 44.0063 33.4321V33.1507C44.0063 33.1063 43.9837 33.084 43.9383 33.084H42.9258C42.6311 33.084 42.4044 33.1507 42.2609 33.284C42.1173 33.4173 42.0417 33.6098 42.0417 33.8467V34.8686C42.0417 35.1055 42.1173 35.298 42.2609 35.4313C42.4044 35.5646 42.6311 35.6312 42.9258 35.6312H43.961C44.0063 35.6312 44.029 35.609 44.029 35.5646V35.2832C44.029 35.2388 44.0063 35.2166 43.961 35.2166V35.2314Z" fill="#FEFEFE"/>
<path d="M46.0011 33.084H45.3059C45.0113 33.084 44.7921 33.1581 44.6486 33.3136C44.505 33.4617 44.4294 33.6616 44.4294 33.8986V35.572C44.4294 35.6164 44.4521 35.6387 44.4974 35.6387H44.8375C44.8828 35.6387 44.9055 35.6164 44.9055 35.572V33.8986C44.9055 33.8023 44.9357 33.706 44.9961 33.6246C45.0566 33.5431 45.1624 33.4987 45.3211 33.4987H45.782V33.7283C45.782 33.7727 45.8046 33.7949 45.85 33.7949H46.19C46.2353 33.7949 46.258 33.7727 46.258 33.7283V33.3062C46.258 33.2469 46.2353 33.1951 46.19 33.1507C46.1447 33.1063 46.0918 33.0914 46.0238 33.0914L46.0011 33.084Z" fill="#FEFEFE"/>
<path d="M47.9883 34.6686C48.6155 34.6612 48.9177 34.3947 48.9177 33.8541C48.9177 33.7283 48.895 33.6172 48.8573 33.5209C48.8119 33.4247 48.759 33.3432 48.6835 33.2766C48.6079 33.2099 48.5172 33.1655 48.419 33.1359C48.3208 33.1063 48.2074 33.084 48.0941 33.084H47.3989C47.1043 33.084 46.8776 33.1507 46.734 33.284C46.5905 33.4173 46.5149 33.6098 46.5149 33.8467V34.8686C46.5149 35.1055 46.5905 35.298 46.734 35.4313C46.8776 35.5646 47.1043 35.6312 47.3989 35.6312H48.7137C48.759 35.6312 48.7817 35.609 48.7817 35.5646V35.2832C48.7817 35.2388 48.759 35.2166 48.7137 35.2166H47.3989C47.2478 35.2166 47.1345 35.1796 47.074 35.1129C47.0136 35.0463 46.9834 34.9574 46.9834 34.8612V34.6538H47.9959L47.9883 34.6686ZM46.9758 33.8541C46.9758 33.7505 47.006 33.669 47.0665 33.6024C47.1269 33.5357 47.2327 33.4987 47.3914 33.4987H48.0865C48.1319 33.4987 48.1772 33.4987 48.215 33.5135C48.2603 33.5209 48.2981 33.5431 48.3359 33.5728C48.3737 33.6024 48.3963 33.6394 48.419 33.6838C48.4417 33.7283 48.4492 33.7875 48.4492 33.8615C48.4492 34.0022 48.4115 34.1059 48.3435 34.1725C48.2754 34.2392 48.1546 34.2688 47.9883 34.2688H46.9758V33.8615V33.8541Z" fill="#FEFEFE"/>
<path d="M50.8143 33.084H49.4996C49.4542 33.084 49.4316 33.1063 49.4316 33.1507V33.4321C49.4316 33.4765 49.4542 33.4987 49.4996 33.4987H50.8143C50.9655 33.4987 51.0788 33.5357 51.1392 33.6024C51.1997 33.669 51.2299 33.7579 51.2299 33.8541V34.0615H50.1721C49.5449 34.0689 49.2427 34.3354 49.2427 34.876C49.2427 35.0019 49.2653 35.1129 49.3031 35.2092C49.3485 35.3054 49.4014 35.3869 49.4769 35.4535C49.5525 35.5128 49.6356 35.5646 49.7414 35.5942C49.8396 35.6238 49.9529 35.6387 50.0663 35.6387H50.8143C51.109 35.6387 51.3357 35.572 51.4793 35.4387C51.6228 35.3054 51.6984 35.1129 51.6984 34.876V33.8541C51.6984 33.6172 51.6228 33.4247 51.4793 33.2914C51.3357 33.1581 51.109 33.0914 50.8143 33.0914V33.084ZM51.2224 34.876C51.2224 34.9796 51.1921 35.0611 51.1317 35.1277C51.0712 35.1944 50.9655 35.2314 50.8068 35.2314H50.0587C50.0134 35.2314 49.9681 35.2314 49.9303 35.2166C49.8849 35.2092 49.8472 35.187 49.8094 35.1574C49.7716 35.1277 49.7489 35.0907 49.7263 35.0463C49.7036 35.0019 49.696 34.9426 49.696 34.876C49.696 34.7353 49.7338 34.6316 49.8018 34.565C49.8698 34.4983 49.9907 34.4687 50.157 34.4687H51.2148V34.876H51.2224Z" fill="#FEFEFE"/>
<path d="M53.6629 35.2314H53.2398C53.1415 35.2314 53.066 35.2092 53.0055 35.1722C52.9526 35.1351 52.9073 35.0907 52.8846 35.0389C52.8544 34.9944 52.8393 34.9278 52.8317 34.8464V33.4913H53.5118C53.5571 33.4913 53.5798 33.4691 53.5798 33.4247V33.1433C53.5798 33.0989 53.5571 33.0766 53.5118 33.0766H52.8317V32.314C52.8317 32.2695 52.8091 32.2473 52.7637 32.2473H52.4237C52.3784 32.2473 52.3557 32.2695 52.3557 32.314V33.0766H51.9703C51.925 33.0766 51.9023 33.0989 51.9023 33.1433V33.4247C51.9023 33.4691 51.925 33.4913 51.9703 33.4913H52.3557V34.8464C52.3557 34.9278 52.3708 35.0093 52.401 35.1055C52.4313 35.1944 52.4842 35.2832 52.5522 35.3573C52.6202 35.4387 52.7108 35.5054 52.8242 35.5572C52.9375 35.609 53.0735 35.6387 53.2322 35.6387H53.6553C53.7007 35.6387 53.7233 35.6164 53.7233 35.572V35.2906C53.7233 35.2462 53.7007 35.224 53.6553 35.224L53.6629 35.2314Z" fill="#FEFEFE"/>
<path d="M55.824 34.6686C56.4512 34.6612 56.7534 34.3947 56.7534 33.8541C56.7534 33.7283 56.7307 33.6172 56.693 33.5209C56.6476 33.4247 56.5947 33.3432 56.5192 33.2766C56.4436 33.2099 56.3529 33.1655 56.2547 33.1359C56.1565 33.1063 56.0431 33.084 55.9298 33.084H55.2346C54.94 33.084 54.7133 33.1507 54.5697 33.284C54.4261 33.4173 54.3506 33.6098 54.3506 33.8467V34.8686C54.3506 35.1055 54.4261 35.298 54.5697 35.4313C54.7133 35.5646 54.94 35.6312 55.2346 35.6312H56.5494C56.5947 35.6312 56.6098 35.609 56.6098 35.5646V35.2832C56.6098 35.2388 56.5872 35.2166 56.5494 35.2166H55.2346C55.0835 35.2166 54.9702 35.1796 54.9097 35.1129C54.8493 35.0463 54.8191 34.9574 54.8191 34.8612V34.6538H55.8316L55.824 34.6686ZM54.8191 33.8541C54.8191 33.7505 54.8493 33.669 54.9097 33.6024C54.9702 33.5357 55.076 33.4987 55.2346 33.4987H55.9298C55.9751 33.4987 56.0205 33.4987 56.0583 33.5135C56.1036 33.5209 56.1414 33.5431 56.1791 33.5728C56.2169 33.6024 56.2396 33.6394 56.2623 33.6838C56.2849 33.7283 56.2925 33.7875 56.2925 33.8615C56.2925 34.0022 56.2547 34.1059 56.1867 34.1725C56.1187 34.2392 55.9978 34.2688 55.8316 34.2688H54.8191V33.8615V33.8541Z" fill="#FEFEFE"/>
<path d="M59.8815 33.084H58.8237V31.9289C58.8237 31.8845 58.801 31.8623 58.7557 31.8623H58.4157C58.3703 31.8623 58.3552 31.8845 58.3552 31.9289V34.8686C58.3552 35.1055 58.4308 35.298 58.5743 35.4313C58.7179 35.5646 58.9446 35.6312 59.2393 35.6312H59.8891C60.1838 35.6312 60.4105 35.5646 60.554 35.4313C60.6976 35.298 60.7732 35.1055 60.7732 34.8686V33.8467C60.7732 33.6098 60.6976 33.4173 60.554 33.284C60.4105 33.1507 60.1838 33.084 59.8891 33.084H59.8815ZM60.2971 34.876C60.2971 34.9796 60.2669 35.0611 60.2065 35.1277C60.146 35.1944 60.0402 35.2314 59.8815 35.2314H59.2317C59.0806 35.2314 58.9673 35.1944 58.9068 35.1277C58.8464 35.0611 58.8161 34.9722 58.8161 34.876V33.4987H59.874C60.0251 33.4987 60.1384 33.5357 60.1989 33.6024C60.2593 33.669 60.2896 33.7579 60.2896 33.8541V34.876H60.2971Z" fill="#FEFEFE"/>
<path d="M62.6621 34.6686C63.2893 34.6612 63.5915 34.3947 63.5915 33.8541C63.5915 33.7283 63.5689 33.6172 63.5311 33.5209C63.4858 33.4247 63.4329 33.3432 63.3573 33.2766C63.2817 33.2099 63.1911 33.1655 63.0928 33.1359C62.9946 33.1063 62.8813 33.084 62.7679 33.084H62.0728C61.7781 33.084 61.5514 33.1507 61.4078 33.284C61.2643 33.4173 61.1887 33.6098 61.1887 33.8467V34.8686C61.1887 35.1055 61.2643 35.298 61.4078 35.4313C61.5514 35.5646 61.7781 35.6312 62.0728 35.6312H63.3875C63.4329 35.6312 63.4555 35.609 63.4555 35.5646V35.2832C63.4555 35.2388 63.4329 35.2166 63.3875 35.2166H62.0728C61.9217 35.2166 61.8083 35.1796 61.7479 35.1129C61.6874 35.0463 61.6572 34.9574 61.6572 34.8612V34.6538H62.6697L62.6621 34.6686ZM61.6572 33.8541C61.6572 33.7505 61.6874 33.669 61.7479 33.6024C61.8083 33.5357 61.9141 33.4987 62.0728 33.4987H62.7679C62.8133 33.4987 62.8586 33.4987 62.8964 33.5135C62.9417 33.5209 62.9795 33.5431 63.0173 33.5728C63.0551 33.6024 63.0777 33.6394 63.1004 33.6838C63.1231 33.7283 63.1306 33.7875 63.1306 33.8615C63.1306 34.0022 63.0928 34.1059 63.0248 34.1725C62.9568 34.2392 62.8359 34.2688 62.6697 34.2688H61.6572V33.8615V33.8541Z" fill="#FEFEFE"/>
<path d="M65.5108 35.2314H65.0877C64.9894 35.2314 64.9139 35.2092 64.8534 35.1722C64.8005 35.1351 64.7552 35.0907 64.7325 35.0389C64.7023 34.9944 64.6872 34.9278 64.6796 34.8464V33.4913H65.3597C65.405 33.4913 65.4277 33.4691 65.4277 33.4247V33.1433C65.4277 33.0989 65.405 33.0766 65.3597 33.0766H64.6796V32.314C64.6796 32.2695 64.657 32.2473 64.6116 32.2473H64.2716C64.2263 32.2473 64.2036 32.2695 64.2036 32.314V33.0766H63.8182C63.7729 33.0766 63.7502 33.0989 63.7502 33.1433V33.4247C63.7502 33.4691 63.7729 33.4913 63.8182 33.4913H64.2036V34.8464C64.2036 34.9278 64.2187 35.0167 64.2489 35.1055C64.2792 35.1944 64.3321 35.2832 64.4001 35.3573C64.4681 35.4387 64.5587 35.5054 64.6721 35.5572C64.7854 35.609 64.9214 35.6387 65.0801 35.6387H65.5032C65.5486 35.6387 65.5712 35.6164 65.5712 35.572V35.2906C65.5712 35.2462 65.5486 35.224 65.5032 35.224L65.5108 35.2314Z" fill="#FEFEFE"/>
<path d="M67.4451 35.2314H67.022C66.9238 35.2314 66.8482 35.2092 66.7878 35.1722C66.7349 35.1351 66.6895 35.0907 66.6669 35.0389C66.6366 34.9944 66.6215 34.9278 66.614 34.8464V33.4913H67.294C67.3393 33.4913 67.362 33.4691 67.362 33.4247V33.1433C67.362 33.0989 67.3393 33.0766 67.294 33.0766H66.614V32.314C66.614 32.2695 66.5913 32.2473 66.546 32.2473H66.2059C66.1606 32.2473 66.1379 32.2695 66.1379 32.314V33.0766H65.7526C65.7072 33.0766 65.6846 33.0989 65.6846 33.1433V33.4247C65.6846 33.4691 65.7072 33.4913 65.7526 33.4913H66.1379V34.8464C66.1379 34.9278 66.153 35.0167 66.1833 35.1055C66.2135 35.1944 66.2664 35.2832 66.3344 35.3573C66.4024 35.4387 66.4931 35.5054 66.6064 35.5572C66.7197 35.609 66.8558 35.6387 67.0144 35.6387H67.4376C67.4829 35.6387 67.5056 35.6164 67.5056 35.572V35.2906C67.5056 35.2462 67.4829 35.224 67.4376 35.224L67.4451 35.2314Z" fill="#FEFEFE"/>
<path d="M69.3114 34.6686C69.9386 34.6612 70.2408 34.3947 70.2408 33.8541C70.2408 33.7283 70.2182 33.6172 70.1804 33.5209C70.135 33.4247 70.0822 33.3432 70.0066 33.2766C69.931 33.2099 69.8404 33.1655 69.7421 33.1359C69.6439 33.1063 69.5306 33.084 69.4172 33.084H68.7221C68.4274 33.084 68.2007 33.1507 68.0571 33.284C67.9136 33.4173 67.838 33.6098 67.838 33.8467V34.8686C67.838 35.1055 67.9136 35.298 68.0571 35.4313C68.2007 35.5646 68.4274 35.6312 68.7221 35.6312H70.0368C70.0822 35.6312 70.1048 35.609 70.1048 35.5646V35.2832C70.1048 35.2388 70.0822 35.2166 70.0368 35.2166H68.7221C68.5709 35.2166 68.4576 35.1796 68.3972 35.1129C68.3367 35.0463 68.3065 34.9574 68.3065 34.8612V34.6538H69.319L69.3114 34.6686ZM68.2989 33.8541C68.2989 33.7505 68.3292 33.669 68.3896 33.6024C68.4501 33.5357 68.5558 33.4987 68.7145 33.4987H69.4097C69.455 33.4987 69.5003 33.4987 69.5381 33.5135C69.5835 33.5209 69.6212 33.5431 69.659 33.5728C69.6968 33.6024 69.7195 33.6394 69.7421 33.6838C69.7648 33.7283 69.7724 33.7875 69.7724 33.8615C69.7724 34.0022 69.7346 34.1059 69.6666 34.1725C69.5986 34.2392 69.4777 34.2688 69.3114 34.2688H68.2989V33.8615V33.8541Z" fill="#FEFEFE"/>
<path d="M72.1827 33.084H71.4876C71.1929 33.084 70.9738 33.1581 70.8302 33.3136C70.6866 33.4617 70.6111 33.6616 70.6111 33.8986V35.572C70.6111 35.6164 70.6338 35.6387 70.6791 35.6387H71.0191C71.0644 35.6387 71.0871 35.6164 71.0871 35.572V33.8986C71.0871 33.7949 71.1173 33.706 71.1778 33.6246C71.2382 33.5431 71.344 33.4987 71.5027 33.4987H71.9636V33.7283C71.9636 33.7727 71.9863 33.7949 72.0316 33.7949H72.3716C72.417 33.7949 72.4397 33.7727 72.4397 33.7283V33.3062C72.4397 33.2469 72.417 33.1951 72.3716 33.1507C72.3263 33.1063 72.2734 33.0914 72.2054 33.0914L72.1827 33.084Z" fill="#FEFEFE"/>
<path d="M76.3613 33.084L76.0288 33.047C76.0288 33.047 75.9986 33.047 75.9835 33.0618C75.9684 33.0766 75.9608 33.0915 75.9608 33.1063C75.9381 33.2618 75.923 33.4173 75.8928 33.5802C75.8701 33.7134 75.855 33.8689 75.8248 34.0318C75.8021 34.1873 75.7795 34.3428 75.7568 34.4983C75.719 34.7501 75.6737 34.9426 75.6132 35.0611C75.5528 35.1796 75.4545 35.2462 75.311 35.2462H75.1145C74.9785 35.2462 74.8727 35.187 74.8123 35.0611C74.7518 34.9426 74.7065 34.7575 74.6687 34.4983C74.646 34.3428 74.6234 34.1873 74.6007 34.0392C74.578 33.8763 74.5554 33.7283 74.5327 33.5876C74.51 33.4321 74.4874 33.2692 74.4647 33.1137C74.4647 33.0989 74.4571 33.084 74.442 33.0692C74.4345 33.0618 74.4194 33.0544 74.4043 33.0544C74.4043 33.0544 74.4043 33.0544 74.3967 33.0544L74.0642 33.0914C74.0642 33.0914 74.0264 33.0989 74.0189 33.1137C74.0038 33.1285 74.0038 33.1433 74.0038 33.1581C74.0265 33.3136 74.0491 33.4691 74.0718 33.6246C74.0945 33.7579 74.1096 33.9134 74.1322 34.0689C74.1549 34.2318 74.1776 34.3873 74.2002 34.528C74.2153 34.6464 74.238 34.7723 74.2682 34.8982C74.2985 35.0241 74.3438 35.1499 74.4043 35.2536C74.4647 35.3647 74.5554 35.4535 74.6612 35.5276C74.7669 35.6016 74.9181 35.6313 75.0994 35.6313H75.2959C75.4772 35.6313 75.6283 35.5942 75.7341 35.5276C75.8475 35.4535 75.9306 35.3647 75.9986 35.2536C76.059 35.1425 76.1044 35.0241 76.1346 34.8982C76.1648 34.7649 76.1875 34.639 76.2026 34.528C76.2253 34.3799 76.2404 34.2318 76.2706 34.0689L76.3386 33.6246C76.3613 33.4691 76.3839 33.3136 76.4066 33.1581C76.4066 33.1433 76.4066 33.1211 76.3915 33.1137C76.3764 33.0989 76.3613 33.0914 76.3462 33.0914L76.3613 33.084Z" fill="#FEFEFE"/>
<path d="M78.2729 33.084H76.9582C76.9129 33.084 76.8902 33.1063 76.8902 33.1507V33.4321C76.8902 33.4765 76.9129 33.4987 76.9582 33.4987H78.2729C78.4241 33.4987 78.5374 33.5357 78.5979 33.6024C78.6583 33.669 78.6885 33.7579 78.6885 33.8541V34.0615H77.6307C77.0035 34.0689 76.7013 34.3354 76.7013 34.876C76.7013 35.0019 76.724 35.1129 76.7617 35.2092C76.8071 35.3054 76.86 35.3869 76.9355 35.4535C77.0111 35.5128 77.0942 35.5646 77.2 35.5942C77.2982 35.6238 77.4116 35.6387 77.5249 35.6387H78.2729C78.5676 35.6387 78.7943 35.572 78.9379 35.4387C79.0814 35.3054 79.157 35.1129 79.157 34.876V33.8541C79.157 33.6172 79.0814 33.4247 78.9379 33.2914C78.7943 33.1581 78.5676 33.0914 78.2729 33.0914V33.084ZM78.6885 34.876C78.6885 34.9796 78.6583 35.0611 78.5979 35.1277C78.5374 35.1944 78.4316 35.2314 78.2729 35.2314H77.5249C77.4796 35.2314 77.4342 35.2314 77.3964 35.2166C77.3511 35.2092 77.3133 35.187 77.2755 35.1574C77.2378 35.1277 77.2151 35.0907 77.1924 35.0463C77.1698 35.0019 77.1622 34.9426 77.1622 34.876C77.1622 34.7353 77.2 34.6316 77.268 34.565C77.336 34.4983 77.4569 34.4687 77.6231 34.4687H78.681V34.876H78.6885Z" fill="#FEFEFE"/>
<path d="M80.026 31.9215H79.6935C79.6559 31.9215 79.6255 31.9514 79.6255 31.9882V35.572C79.6255 35.6088 79.6559 35.6387 79.6935 35.6387H80.026C80.0635 35.6387 80.094 35.6088 80.094 35.572V31.9882C80.094 31.9514 80.0635 31.9215 80.026 31.9215Z" fill="#FEFEFE"/>
<path d="M82.9124 33.084H82.5724C82.527 33.084 82.5044 33.1063 82.5044 33.1507V34.8241C82.5044 34.9204 82.4742 35.0167 82.4137 35.0981C82.3533 35.187 82.2475 35.224 82.0888 35.224H81.439C81.2879 35.224 81.1745 35.1796 81.1141 35.0981C81.0536 35.0167 81.0234 34.9204 81.0234 34.8241V33.1507C81.0234 33.1063 81.0007 33.084 80.9554 33.084H80.6154C80.57 33.084 80.5474 33.1063 80.5474 33.1507V34.8241C80.5474 35.0611 80.6229 35.261 80.7665 35.4091C80.9101 35.5572 81.1367 35.6387 81.4239 35.6387H82.0737C82.3684 35.6387 82.5875 35.5646 82.7311 35.4091C82.8746 35.261 82.9502 35.0611 82.9502 34.8241V33.1507C82.9502 33.1063 82.9275 33.084 82.8822 33.084H82.9124Z" fill="#FEFEFE"/>
<path d="M85.5872 35.2314H84.2725C84.1214 35.2314 84.008 35.1944 83.9476 35.1277C83.8871 35.0611 83.8569 34.9722 83.8569 34.876V34.6686H84.8694C85.4966 34.6612 85.7988 34.3947 85.7988 33.8541C85.7988 33.7283 85.7761 33.6172 85.7384 33.5209C85.693 33.4247 85.6401 33.3432 85.5646 33.2766C85.489 33.2099 85.3983 33.1655 85.3001 33.1359C85.2019 33.1063 85.0885 33.084 84.9752 33.084H84.2801C83.9854 33.084 83.7587 33.1507 83.6151 33.284C83.4716 33.4173 83.396 33.6098 83.396 33.8467V34.8686C83.396 35.1055 83.4716 35.298 83.6151 35.4313C83.7587 35.5646 83.9854 35.6312 84.2801 35.6312H85.5948C85.6401 35.6312 85.6628 35.609 85.6628 35.5646V35.2832C85.6628 35.2388 85.6401 35.2166 85.5948 35.2166L85.5872 35.2314ZM83.8645 33.8541C83.8645 33.7505 83.8947 33.669 83.9551 33.6024C84.0156 33.5357 84.1214 33.4987 84.2801 33.4987H84.9752C85.0205 33.4987 85.0659 33.4987 85.1037 33.5135C85.149 33.5209 85.1868 33.5431 85.2246 33.5728C85.2623 33.6024 85.285 33.6394 85.3077 33.6838C85.3303 33.7283 85.3379 33.7875 85.3379 33.8615C85.3379 34.0022 85.3001 34.1059 85.2321 34.1725C85.1641 34.2392 85.0432 34.2688 84.877 34.2688H83.8645V33.8615V33.8541Z" fill="#FEFEFE"/>
<path d="M49.0084 19.0892L44.2783 29.0189C43.961 29.7001 43.4245 30.0407 42.6538 30.0407C41.8831 30.0407 41.339 29.7001 41.0141 29.0189L36.2841 19.0892H38.5886L42.3893 27.0566C42.4422 27.1677 42.5329 27.227 42.6538 27.227C42.7747 27.227 42.8654 27.1677 42.9183 27.0566L46.719 19.0892H49.0009H49.0084Z" fill="#FEFEFE"/>
<path d="M60.0931 30.0185H58.0152V28.7819C56.9725 29.6187 55.8013 30.0333 54.5016 30.0333C52.9678 30.0333 51.653 29.5002 50.565 28.4265C49.4693 27.3528 48.9253 26.0718 48.9253 24.5687C48.9253 23.0655 49.4693 21.7623 50.565 20.696C51.6606 19.6298 52.9678 19.0892 54.5016 19.0892C56.0355 19.0892 57.3654 19.6224 58.461 20.696C59.5566 21.7697 60.1007 23.0581 60.1007 24.5687V30.0185H60.0931ZM54.4941 27.997C55.4613 27.997 56.2924 27.6638 56.9876 26.99C57.6676 26.3236 58.0152 25.5165 58.0152 24.5687C58.0152 23.6209 57.6752 22.8064 56.9876 22.1251C56.2924 21.4587 55.4613 21.1181 54.4941 21.1181C53.5269 21.1181 52.7033 21.4513 52.0233 22.1251C51.3432 22.8064 50.9956 23.6209 50.9956 24.5687C50.9956 25.5165 51.3357 26.3236 52.0233 26.99C52.7033 27.6564 53.5345 27.997 54.4941 27.997Z" fill="#FEFEFE"/>
<path d="M77.4267 19.0892V24.5687C77.4267 26.0718 76.8827 27.3602 75.7871 28.4265C74.6914 29.5002 73.3842 30.0333 71.8504 30.0333C70.3165 30.0333 68.9866 29.5002 67.891 28.4265C66.7954 27.3528 66.2513 26.0718 66.2513 24.5687V19.0892H68.3293V24.5687C68.3293 25.5165 68.6693 26.3236 69.3569 26.99C70.052 27.6564 70.8832 27.997 71.8504 27.997C72.8175 27.997 73.6412 27.6638 74.3212 26.99C75.0012 26.3236 75.3488 25.5165 75.3488 24.5687V19.0892H77.4267Z" fill="#FEFEFE"/>
<path d="M81.0763 25.5905C81.3105 26.294 81.7261 26.8641 82.323 27.3232C82.9426 27.7749 83.6378 28.0044 84.416 28.0044C85.0356 28.0044 85.6552 27.8638 86.2748 27.5898C86.9246 27.301 87.4007 26.9382 87.7105 26.4939L89.4257 27.6342C88.9345 28.3525 88.2092 28.9374 87.2647 29.3817C86.3277 29.826 85.3756 30.0481 84.4085 30.0481C82.867 30.0481 81.5447 29.515 80.4491 28.4413C79.3535 27.3676 78.8094 26.0866 78.8094 24.5835C78.8094 23.0803 79.3535 21.7771 80.4491 20.7108C81.5447 19.6372 82.8595 19.104 84.4085 19.104C85.9575 19.104 87.2571 19.6372 88.3452 20.7108C89.4408 21.7845 89.9848 23.0729 89.9848 24.5835C89.9848 24.9241 89.9546 25.2573 89.8866 25.5905L81.0611 25.6053L81.0763 25.5905ZM84.4236 21.1255C83.6453 21.1255 82.9502 21.3551 82.3306 21.8067C81.7336 22.2584 81.318 22.8434 81.0838 23.5542H87.7482C87.514 22.8434 87.0984 22.2658 86.5015 21.8067C85.8819 21.3551 85.1867 21.1255 84.4236 21.1255Z" fill="#FEFEFE"/>
<path d="M64.3548 27.6416C64.113 27.4047 63.9921 27.1233 63.9921 26.7901V15.2166H61.9142V26.7901C61.9142 27.686 62.2391 28.4561 62.8889 29.0929C63.5312 29.7223 64.3094 30.0333 65.2237 30.0333H65.322V27.997H65.2237C64.8837 27.997 64.5966 27.8786 64.3548 27.6416Z" fill="#FEFEFE"/>
</svg>
