<svg xmlns="http://www.w3.org/2000/svg" width="32" height="32" viewBox="0 0 32 32" fill="none">
  <mask id="mask0_366_123" style="mask-type:alpha" maskUnits="userSpaceOnUse" x="0" y="0" width="32" height="32">
    <rect width="32" height="32" fill="#D9D9D9"/>
  </mask>
  <g mask="url(#mask0_366_123)">
    <path d="M7.99992 26.6667C7.26659 26.6667 6.63881 26.4056 6.11659 25.8833C5.59436 25.3611 5.33325 24.7333 5.33325 24V21.3333C5.33325 20.9556 5.46103 20.6389 5.71659 20.3833C5.97214 20.1278 6.28881 20 6.66659 20C7.04436 20 7.36103 20.1278 7.61659 20.3833C7.87214 20.6389 7.99992 20.9556 7.99992 21.3333V24H23.9999V21.3333C23.9999 20.9556 24.1277 20.6389 24.3833 20.3833C24.6388 20.1278 24.9555 20 25.3333 20C25.711 20 26.0277 20.1278 26.2833 20.3833C26.5388 20.6389 26.6666 20.9556 26.6666 21.3333V24C26.6666 24.7333 26.4055 25.3611 25.8833 25.8833C25.361 26.4056 24.7333 26.6667 23.9999 26.6667H7.99992ZM14.6666 10.4667L12.1666 12.9667C11.8999 13.2333 11.5833 13.3611 11.2166 13.35C10.8499 13.3389 10.5333 13.2 10.2666 12.9333C10.0221 12.6667 9.89436 12.3556 9.88325 12C9.87214 11.6444 9.99992 11.3333 10.2666 11.0667L15.0666 6.26667C15.1999 6.13333 15.3444 6.03889 15.4999 5.98333C15.6555 5.92778 15.8221 5.9 15.9999 5.9C16.1777 5.9 16.3444 5.92778 16.4999 5.98333C16.6555 6.03889 16.7999 6.13333 16.9333 6.26667L21.7333 11.0667C21.9999 11.3333 22.1277 11.6444 22.1166 12C22.1055 12.3556 21.9777 12.6667 21.7333 12.9333C21.4666 13.2 21.1499 13.3389 20.7833 13.35C20.4166 13.3611 20.0999 13.2333 19.8333 12.9667L17.3333 10.4667V20C17.3333 20.3778 17.2055 20.6944 16.9499 20.95C16.6944 21.2056 16.3777 21.3333 15.9999 21.3333C15.6221 21.3333 15.3055 21.2056 15.0499 20.95C14.7944 20.6944 14.6666 20.3778 14.6666 20V10.4667Z" fill="#0B0B0B"/>
  </g>
</svg>